<svg width="80" height="49" viewBox="0 0 80 49" fill="none" xmlns="http://www.w3.org/2000/svg">
<g opacity="0.5">
<path d="M16.8536 14.7442C15.9754 13.8316 16.0018 12.3778 16.9175 11.4964C17.8316 10.6198 19.2839 10.6463 20.1653 11.5635C21.0451 12.4761 21.0154 13.9314 20.1029 14.8097C19.1888 15.6895 17.7318 15.6598 16.8536 14.7457L16.8536 14.7442Z" fill="#1EA68B"/>
<path d="M11.5969 19.8014C10.7187 18.8888 10.7452 17.4334 11.6593 16.5552C12.575 15.6754 14.0273 15.7035 14.9055 16.6176C15.7853 17.5333 15.7557 18.9871 14.8431 19.8653C13.9306 20.7451 12.4752 20.7155 11.5954 19.8014L11.5969 19.8014Z" fill="#1EA68B"/>
<path d="M22.2399 20.3442C21.3601 19.4286 21.3897 17.9747 22.3023 17.0965C23.2179 16.2167 24.6702 16.2432 25.5516 17.1589C26.4314 18.073 26.4033 19.5253 25.4877 20.4051C24.5751 21.2848 23.1181 21.2568 22.2399 20.3442Z" fill="#1EA68B"/>
<path d="M16.9819 25.4015C16.1021 24.4889 16.1333 23.032 17.0459 22.1537C17.9584 21.2739 19.4138 21.3036 20.2936 22.2161C21.1718 23.1302 21.1422 24.5841 20.2296 25.4639C19.3155 26.3421 17.8633 26.3156 16.9819 25.403L16.9819 25.4015Z" fill="#1EA68B"/>
<path d="M6.4102 3.88876C5.53197 2.97621 5.56004 1.52083 6.47258 0.641038C7.38669 -0.23719 8.84057 -0.210674 9.72036 0.706551C10.6001 1.6191 10.5721 3.07449 9.65798 3.95428C8.74387 4.83095 7.28999 4.80442 6.4102 3.88876Z" fill="#1EA68B"/>
<path d="M1.15454 8.94597C0.274754 8.03031 0.302854 6.57803 1.2154 5.69825C2.12951 4.81846 3.58491 4.84809 4.4647 5.76064C5.34449 6.67474 5.31638 8.12858 4.40072 9.00836C3.48817 9.88659 2.03277 9.85852 1.15454 8.94441L1.15454 8.94597Z" fill="#1EA68B"/>
<path d="M11.7968 9.48727C10.9185 8.57316 10.9466 7.11777 11.8607 6.23954C12.7748 5.35975 14.2287 5.38783 15.1084 6.30194C15.9867 7.21448 15.9586 8.66832 15.0445 9.54811C14.1304 10.4279 12.6766 10.4014 11.7968 9.4857L11.7968 9.48727Z" fill="#1EA68B"/>
<path d="M6.53841 14.5461C5.66018 13.632 5.68825 12.1766 6.60391 11.2983C7.51646 10.4186 8.97026 10.4466 9.85161 11.3592C10.7298 12.2733 10.7017 13.7287 9.78763 14.6053C8.87352 15.4867 7.41819 15.4602 6.53841 14.5445L6.53841 14.5461Z" fill="#1EA68B"/>
<path d="M27.6247 25.9412C26.7449 25.0287 26.7714 23.5733 27.6887 22.6935C28.6012 21.8137 30.0566 21.8418 30.9348 22.7559C31.8146 23.67 31.785 25.1238 30.8724 26.0036C29.9583 26.8834 28.5029 26.8553 27.6247 25.9396L27.6247 25.9412Z" fill="#1EA68B"/>
<path d="M22.3685 31C21.4902 30.0859 21.5168 28.6305 22.4309 27.7522C23.3465 26.8725 24.7988 26.9005 25.677 27.8146C26.5584 28.7287 26.5303 30.1841 25.6162 31.0608C24.7021 31.9422 23.2498 31.9141 22.3685 30.9984L22.3685 31Z" fill="#1EA68B"/>
<path d="M33.0098 31.5397C32.1316 30.6272 32.1582 29.1718 33.0723 28.292C33.9864 27.4138 35.4402 27.4418 36.32 28.3575C37.1998 29.2701 37.1717 30.7255 36.2576 31.6052C35.3435 32.485 33.8896 32.4554 33.0098 31.5413L33.0098 31.5397Z" fill="#1EA68B"/>
<path d="M27.7534 36.5954C26.8721 35.6828 26.9033 34.229 27.8189 33.3492C28.7299 32.471 30.1853 32.499 31.0651 33.4116C31.9449 34.3272 31.9168 35.7811 31.0027 36.6593C30.087 37.5391 28.6348 37.5126 27.755 36.5969L27.7534 36.5954Z" fill="#1EA68B"/>
<path d="M43.6544 32.081C42.773 31.1653 42.8011 29.7131 43.7168 28.8333C44.6293 27.9535 46.0847 27.9815 46.9645 28.8972C47.8443 29.8113 47.8162 31.2652 46.9021 32.1449C45.988 33.0232 44.5326 32.9967 43.6544 32.0826L43.6544 32.081Z" fill="#1EA68B"/>
<path d="M38.3964 37.1382C37.515 36.2225 37.5446 34.7702 38.4603 33.8905C39.3728 33.0107 40.8267 33.0388 41.708 33.9529C42.5863 34.8685 42.5582 36.3208 41.6441 37.2021C40.73 38.0788 39.2761 38.0523 38.3964 37.1382Z" fill="#1EA68B"/>
<path d="M33.1391 42.1954C32.2593 41.2813 32.2874 39.8275 33.2015 38.9492C34.1156 38.0679 35.571 38.096 36.4493 39.0101C37.3306 39.9226 37.301 41.378 36.3869 42.2578C35.4728 43.136 34.0174 43.1079 33.1391 42.1938L33.1391 42.1954Z" fill="#1EA68B"/>
<path d="M49.0384 37.6763C48.1601 36.7653 48.1898 35.31 49.1008 34.4302C50.0164 33.5504 51.4702 33.5785 52.3485 34.4926C53.2314 35.4082 53.2018 36.8605 52.2861 37.7403C51.3735 38.6201 49.9166 38.592 49.0368 37.6763L49.0384 37.6763Z" fill="#1EA68B"/>
<path d="M43.7807 42.7367C42.9009 41.8226 42.929 40.3687 43.8431 39.4889C44.7572 38.6092 46.2126 38.6388 47.0909 39.5529C47.9722 40.467 47.9426 41.9193 47.0285 42.8006C46.1144 43.6804 44.6605 43.6523 43.7807 42.7382L43.7807 42.7367Z" fill="#1EA68B"/>
<path d="M38.5245 47.7939C37.6447 46.8798 37.6727 45.4244 38.5868 44.5462C39.4994 43.6664 40.9548 43.6929 41.8346 44.6086C42.7159 45.5227 42.6848 46.9765 41.7722 47.8563C40.8581 48.7361 39.4043 48.7065 38.5245 47.7924L38.5245 47.7939Z" fill="#1EA68B"/>
<path d="M65.2562 18.0481C66.1719 17.1698 67.6257 17.1979 68.504 18.112C69.3838 19.023 69.3573 20.4784 68.4416 21.3582C67.5275 22.238 66.0736 22.2099 65.1938 21.2958C64.3125 20.3832 64.3421 18.9278 65.2562 18.0496L65.2562 18.0481Z" fill="#1EA68B"/>
<path d="M59.9865 12.5696C60.9006 11.6929 62.356 11.7195 63.2342 12.6336C64.114 13.5492 64.0859 15.0031 63.1703 15.8813C62.2577 16.7626 60.8039 16.733 59.9241 15.8189C59.0459 14.9064 59.0724 13.451 59.9865 12.5712L59.9865 12.5696Z" fill="#1EA68B"/>
<path d="M59.658 23.4329C60.5737 22.5531 62.026 22.5827 62.9057 23.4953C63.7855 24.4094 63.7574 25.8632 62.8449 26.743C61.9292 27.6212 60.4769 27.5931 59.5971 26.679C58.7174 25.7649 58.7455 24.3111 59.6596 23.4313L59.658 23.4329Z" fill="#1EA68B"/>
<path d="M54.3902 17.9545C55.3043 17.0762 56.7582 17.1059 57.638 18.0184C58.5162 18.9325 58.4897 20.3879 57.5755 21.2661C56.6599 22.1459 55.2061 22.1178 54.3263 21.2037C53.4465 20.2912 53.4761 18.8374 54.3902 17.9545Z" fill="#1EA68B"/>
<path d="M76.1117 7.60447C77.0258 6.72468 78.4796 6.75432 79.3594 7.66687C80.2376 8.58253 80.2095 10.0364 79.2954 10.9162C78.3798 11.7944 76.926 11.7679 76.0477 10.8538C75.168 9.94121 75.1976 8.48582 76.1101 7.60603L76.1117 7.60447Z" fill="#1EA68B"/>
<path d="M70.8443 2.12761C71.7584 1.24782 73.2138 1.27591 74.092 2.19001C74.9703 3.10412 74.9421 4.55951 74.0265 5.43618C73.1139 6.31753 71.6601 6.28944 70.7803 5.37378C69.899 4.45967 69.9286 3.00584 70.8427 2.12605L70.8443 2.12761Z" fill="#1EA68B"/>
<path d="M70.5133 12.9893C71.429 12.1095 72.8812 12.1391 73.761 13.0517C74.6392 13.9658 74.6127 15.4212 73.6986 16.2978C72.7845 17.1776 71.3307 17.1511 70.4509 16.2354C69.5711 15.3213 69.5976 13.8675 70.5117 12.9877L70.5133 12.9893Z" fill="#1EA68B"/>
<path d="M65.2455 7.514C66.1612 6.63421 67.615 6.66384 68.4917 7.57483C69.3714 8.48894 69.3434 9.94433 68.4308 10.8241C67.5152 11.7039 66.0613 11.6743 65.1831 10.7633C64.3049 9.84917 64.3314 8.39379 65.2455 7.514Z" fill="#1EA68B"/>
<path d="M54.0613 28.8192C54.9738 27.9394 56.4292 27.9675 57.309 28.8816C58.1888 29.7941 58.1592 31.2495 57.2451 32.1293C56.3294 33.0091 54.8755 32.981 53.9973 32.0654C53.1175 31.1544 53.1456 29.699 54.0613 28.8208L54.0613 28.8192Z" fill="#1EA68B"/>
<path d="M49.0023 23.5623C49.9148 22.681 51.3702 22.7091 52.25 23.6247C53.1283 24.5357 53.1002 25.9927 52.1861 26.8709C51.272 27.7491 49.8181 27.721 48.9383 26.8085C48.0586 25.8928 48.0882 24.439 49.0023 23.5608L49.0023 23.5623Z" fill="#1EA68B"/>
</g>
</svg>
