<svg width="26" height="20" viewBox="0 0 26 20" fill="none" xmlns="http://www.w3.org/2000/svg">
<path d="M2.77778 2.28571L10.5824 8.21543L10.585 8.218C11.4513 8.857 11.8845 9.17714 12.3598 9.30057C12.7797 9.40989 13.2203 9.40989 13.6402 9.30057C14.1155 9.17714 14.5499 8.857 15.4188 8.21543C15.4188 8.21543 20.4239 4.35057 23.2222 2.28571M1.5 14.8857V5.11429C1.5 3.67429 1.5 2.95429 1.77856 2.404C2.02389 1.91929 2.41361 1.52714 2.89533 1.28029C3.44222 1 4.15778 1 5.58889 1H20.4111C21.8422 1 22.5578 1 23.1034 1.28029C23.5851 1.52714 23.9761 1.91929 24.2214 2.404C24.5 2.953 24.5 3.673 24.5 5.11043V14.8909C24.5 16.3283 24.5 17.0457 24.2214 17.596C23.9761 18.08 23.5847 18.4734 23.1034 18.7197C22.5578 19 21.8435 19 20.4149 19H5.58506C4.1565 19 3.44094 19 2.89533 18.7197C2.4145 18.4732 2.02356 18.0798 1.77856 17.596C1.5 17.0457 1.5 16.3257 1.5 14.8857Z" stroke="white" stroke-width="2" stroke-linecap="round" stroke-linejoin="round"/>
</svg>
