<svg width="100" height="100" viewBox="0 0 100 100" fill="none" xmlns="http://www.w3.org/2000/svg">
<path d="M89 88.7692V46.7692M11.4615 46.7692V88.7692M5 92H95.4615M56.6923 92V61.3077C56.6923 60.0224 57.2029 58.7898 58.1117 57.8809C59.0205 56.9721 60.2532 56.4615 61.5385 56.4615H74.4615C75.7468 56.4615 76.9794 56.9721 77.8883 57.8809C78.7971 58.7898 79.3077 60.0224 79.3077 61.3077V92M75.768 8H24.6936C20.2937 8 16.3198 10.4231 14.6115 14.1506L5.86827 33.2404C2.92423 39.6636 7.81279 46.9409 15.397 47.1731H15.8009C22.1412 47.1731 27.2802 42.0887 27.2802 36.6266C27.2802 42.0786 32.4212 47.1731 38.7615 47.1731C45.1019 47.1731 50.2308 42.4521 50.2308 36.6266C50.2308 42.0786 55.3697 47.1731 61.7101 47.1731C68.0505 47.1731 73.1914 42.4521 73.1914 36.6266C73.1914 42.4521 78.3304 47.1731 84.6708 47.1731H85.0645C92.6487 46.9368 97.5373 39.6595 94.5933 33.2404L85.85 14.1506C84.1417 10.4231 80.1679 8 75.768 8ZM26 56.4615H42.1538C43.4391 56.4615 44.6718 56.9721 45.5806 57.8809C46.4894 58.7898 47 60.0224 47 61.3077V79.0769H21.1538V61.3077C21.1538 60.0224 21.6644 58.7898 22.5732 57.8809C23.4821 56.9721 24.7147 56.4615 26 56.4615Z" stroke="white" stroke-width="4" stroke-linecap="round" stroke-linejoin="round"/>
</svg>
