<svg width="29" height="29" viewBox="0 0 29 29" fill="none" xmlns="http://www.w3.org/2000/svg">
<path d="M17.7283 10.8242V15.2617C17.7283 15.3867 17.6033 15.4492 17.4783 15.4492H16.7908C16.7283 15.4492 16.6658 15.3867 16.6033 15.3867L14.6033 12.6367V15.2617C14.6033 15.3867 14.4783 15.4492 14.4158 15.4492H13.6658C13.5408 15.4492 13.4783 15.3867 13.4783 15.2617V10.8242C13.4783 10.6992 13.5408 10.6367 13.6658 10.6367H14.4158C14.4783 10.6367 14.5408 10.6367 14.5408 10.6992L16.6033 13.4492V10.8242C16.6033 10.6992 16.6658 10.6367 16.7908 10.6367H17.4783C17.6033 10.5742 17.7283 10.6992 17.7283 10.8242ZM12.6033 10.5742C12.6658 10.5742 12.7908 10.6992 12.7908 10.8242V15.2617C12.7908 15.3867 12.6658 15.4492 12.6033 15.4492H11.8533C11.7283 15.4492 11.6658 15.3867 11.6658 15.2617V10.8242C11.6658 10.6992 11.7283 10.5742 11.8533 10.5742H12.6033ZM10.8533 14.3242C10.9783 14.3242 11.0408 14.4492 11.0408 14.5117V15.2617C11.0408 15.3242 10.9783 15.4492 10.8533 15.4492H7.97827C7.91577 15.4492 7.91577 15.3867 7.85327 15.3867C7.85327 15.3242 7.79077 15.3242 7.79077 15.2617V10.8242C7.79077 10.6992 7.91577 10.5742 7.97827 10.5742H8.72827C8.85327 10.5742 8.91577 10.6992 8.91577 10.8242V14.3242H10.8533ZM21.4783 10.5742C21.5408 10.5742 21.6658 10.6992 21.6658 10.8242V11.5117C21.6658 11.6367 21.5408 11.6992 21.4783 11.6992H19.5408V12.4492H21.4783C21.5408 12.4492 21.6658 12.5742 21.6658 12.6367V13.3867C21.6658 13.5117 21.5408 13.5742 21.4783 13.5742H19.5408V14.3242H21.4783C21.5408 14.3242 21.6658 14.4492 21.6658 14.5117V15.2617C21.6658 15.3867 21.5408 15.4492 21.4783 15.4492H18.6033C18.4783 15.4492 18.4158 15.3242 18.4158 15.2617V10.8242C18.4158 10.6992 18.4783 10.5742 18.6033 10.5742H21.4783ZM28.7283 5.13672V22.9492C28.6658 25.7617 26.4158 28.0742 23.6033 28.0117H5.79077C2.97827 28.0117 0.665771 25.7617 0.728271 22.9492V5.07422C0.728271 2.32422 2.97827 0.0117188 5.79077 0.0117188H23.6658C26.4158 0.0742188 28.7283 2.32422 28.7283 5.13672ZM24.8533 12.8242C24.8533 8.26172 20.2908 4.51172 14.6658 4.51172C9.04077 4.51172 4.47827 8.26172 4.47827 12.8242C4.47827 16.8867 8.10327 20.3242 12.9783 20.9492C14.1658 21.1992 14.0408 21.6367 13.7908 23.2617C13.7283 23.5117 13.5408 24.2617 14.6658 23.8242C15.7283 23.3867 20.5408 20.3867 22.6658 17.8867C24.1658 16.2617 24.8533 14.6367 24.8533 12.8242Z" fill="white"/>
</svg>
