<svg width="486" height="34" viewBox="0 0 486 34" fill="none" xmlns="http://www.w3.org/2000/svg">
<path d="M18.075 6.08H25.705C27.805 6.08 28.96 6.01 29.94 5.835V9.895C28.855 9.72 27.735 9.685 25.74 9.685H18.075V14.55H27.665C29.625 14.55 30.815 14.48 31.9 14.34V18.4C30.71 18.26 29.45 18.19 27.665 18.19H19.825C23.255 23.055 27.035 26.065 32.915 28.62C31.83 30.02 31.445 30.65 30.535 32.4C27.385 30.65 25.635 29.425 23.29 27.325C20.84 25.155 19.755 23.86 17.97 21.06C18.04 23.055 18.075 23.615 18.075 24.315V30.09C18.075 31.49 18.145 32.68 18.32 33.87H13.91C14.085 32.785 14.155 31.665 14.155 30.125V24.49C14.155 23.335 14.155 22.845 14.26 21.2C12.72 23.615 11.495 25.085 9.36 27.045C7.155 29.145 5.16 30.58 2.43 32.19C1.625 30.72 1.135 29.985 0.015 28.655C2.99 27.255 5.51 25.54 8.1 23.195C9.71 21.69 10.97 20.22 12.405 18.19H5.335C3.62 18.19 2.465 18.26 1.135 18.4V14.34C2.465 14.48 3.445 14.55 5.3 14.55H14.155V9.685H7.295C5.37 9.685 4.285 9.72 3.06 9.895V5.835C4.25 6.01 5.265 6.08 7.26 6.08H14.155V3.945C14.155 2.93 14.12 2.23 13.98 1.46H18.25C18.11 2.23 18.075 2.755 18.075 3.98V6.08ZM47.02 19.835H39.915C38.235 19.835 37.15 19.905 35.82 20.045V16.09C37.01 16.265 37.955 16.3 39.88 16.3H42.89C42.12 14.025 41.42 12.52 40.195 10.455L43.485 8.985C44.675 11.015 45.06 11.75 46.39 15.075L43.625 16.3H49.26V8.67H41.35C39.74 8.67 38.655 8.74 37.465 8.88V4.96C38.69 5.135 39.775 5.205 41.56 5.205H49.26V4.225C49.26 3.14 49.19 2.475 49.085 1.53H53.285C53.145 2.37 53.11 3.07 53.11 4.26V5.205H61.44C63.47 5.205 64.625 5.135 65.605 4.96V8.88C64.555 8.705 63.47 8.67 61.685 8.67H53.11V16.3H55.49C57.065 13.78 58.08 11.715 58.92 9.23L62.595 10.42C61.72 12.555 60.985 13.99 59.55 16.3H63.225C65.325 16.3 66.305 16.265 67.25 16.09V20.045C66.06 19.905 64.835 19.835 63.05 19.835H55.35C58.36 23.93 62.175 26.73 67.915 29.075C66.865 30.335 66.305 31.21 65.57 32.75C62.105 30.965 59.97 29.565 57.625 27.465C55.735 25.75 54.545 24.385 52.97 22.075C53.075 23.965 53.11 24.665 53.11 25.4V30.335C53.11 31.665 53.18 32.785 53.355 33.905H49.015C49.19 32.785 49.26 31.805 49.26 30.335V25.435C49.26 24.35 49.26 23.685 49.365 22.18C47.72 24.805 46.075 26.66 43.555 28.76C41.63 30.335 39.81 31.56 37.64 32.68C36.8 31.175 36.31 30.405 35.26 29.18C38.48 27.745 41.175 25.995 43.835 23.545C44.885 22.565 45.725 21.585 47.02 19.835ZM72.85 9.825L72.92 5.835C74.355 6.15 76.595 6.29 81.04 6.29C81.985 4.19 82.3 3.14 82.44 1.95L87.025 2.44C86.815 2.79 86.815 2.79 85.625 5.59C85.45 5.975 85.38 6.08 85.31 6.22C85.59 6.185 85.59 6.185 87.515 6.08C91.575 5.835 94.76 5.45 96.685 4.89L96.93 8.88C95.95 8.95 95.95 8.95 94.165 9.16C91.61 9.475 87.165 9.755 83.63 9.86C82.615 11.855 81.635 13.255 80.41 14.515L80.445 14.585C80.69 14.41 80.69 14.41 81.145 14.06C82.44 13.08 84.295 12.485 86.08 12.485C88.81 12.485 90.525 13.78 91.085 16.195C93.78 15.215 95.565 14.585 96.44 14.305C98.33 13.64 98.47 13.605 99.03 13.255L100.675 17.28C99.695 17.42 98.645 17.7 96.79 18.225C96.3 18.365 94.55 18.96 91.54 20.01V20.395C91.575 21.305 91.575 21.305 91.575 21.795C91.575 22.145 91.575 22.74 91.575 23.195C91.54 23.79 91.54 24.105 91.54 24.35C91.54 25.12 91.575 25.61 91.645 26.205L87.585 26.31C87.725 25.68 87.795 23.895 87.795 22.25C87.795 21.76 87.795 21.76 87.795 21.41C86.08 22.215 85.17 22.705 84.435 23.23C83.21 24.14 82.615 25.085 82.615 26.1C82.615 27.92 84.295 28.655 88.53 28.655C92.73 28.655 96.335 28.13 98.82 27.185L99.17 31.7C98.575 31.7 98.4 31.735 97.56 31.84C95.04 32.225 91.68 32.47 88.6 32.47C84.89 32.47 82.58 32.05 80.795 31C79.185 30.09 78.24 28.41 78.24 26.485C78.24 25.05 78.66 23.93 79.78 22.6C81.355 20.64 83.35 19.31 87.305 17.665C87.13 16.37 86.43 15.775 85.17 15.775C83.14 15.775 80.69 17 77.995 19.38C76.525 20.605 75.72 21.48 74.95 22.565L71.765 19.415C72.675 18.715 73.69 17.735 74.915 16.3C76.28 14.69 78.415 11.645 79.115 10.315C79.255 10.035 79.255 10.035 79.395 9.86C79.255 9.86 78.8 9.895 78.8 9.895C78.24 9.895 75.16 9.825 74.39 9.825C73.725 9.79 73.725 9.79 73.41 9.79C73.305 9.79 73.095 9.79 72.85 9.825ZM110.72 31V26.45C110.72 25.995 110.72 25.785 110.685 25.435C110.055 28.34 109.18 30.58 107.675 33.205C106.695 31.875 105.89 31 104.84 30.125C107.255 26.45 108.13 22.425 108.13 15.005C108.13 13.605 108.095 12.94 108.025 11.89C107.815 12.03 107.71 12.1 107.395 12.31C106.555 10.875 106.065 10.245 104.875 9.125C107.465 7.69 108.9 6.64 110.685 4.995C112.05 3.735 112.82 2.895 113.59 1.775H117.475C119.4 4.015 121.465 5.485 125.14 7.235C124.23 8.565 123.845 9.265 123.32 10.63C121.885 9.825 121.325 9.475 120.45 8.88V10.49C119.82 10.42 119.26 10.385 118.455 10.385H113.555C112.505 10.385 112.12 10.42 111.525 10.49V9.265C110.405 10.21 109.285 11.05 108.515 11.575C109.6 11.645 110.125 11.645 111.385 11.645H120.275C121.535 11.645 122.06 11.61 123.04 11.54C122.97 12.31 122.935 13.115 122.935 14.165V19.94C122.935 21.165 122.97 21.83 123.04 22.565C122.06 22.53 121.57 22.495 120.625 22.495H111.21C111.14 23.16 111.07 23.475 111 23.86C111.595 23.895 112.015 23.895 112.855 23.895H121.01C121.955 23.895 122.62 23.86 123.425 23.79C123.32 24.665 123.32 25.225 123.32 26.345V30.51C123.32 31.7 123.355 32.47 123.46 33.31H119.785V32.26H114.185V33.8H110.545C110.65 32.995 110.72 32.19 110.72 31ZM111.7 15.81H119.33V14.375H111.7V15.81ZM119.33 18.365H111.595C111.595 18.89 111.56 19.1 111.49 19.765H119.33V18.365ZM113.59 7.725H118.35C118.595 7.725 118.77 7.725 118.84 7.725C117.44 6.605 116.95 6.15 115.76 4.855C114.745 6.15 114.325 6.64 113.205 7.725C113.24 7.725 113.275 7.725 113.275 7.725H113.59ZM114.22 26.66V29.46H119.75V26.66H114.22ZM125.525 4.225H129.515C129.375 5.135 129.34 6.08 129.34 7.865V21.865C129.34 23.965 129.34 24.63 129.48 25.575H125.525C125.665 24.56 125.7 23.825 125.7 21.83V7.935C125.7 6.22 125.63 5.205 125.525 4.225ZM132.56 1.845H136.655C136.48 2.825 136.445 3.945 136.445 6.08V29.285C136.445 32.575 135.5 33.31 131.23 33.31C130.46 33.31 130.355 33.31 127.975 33.205C127.73 31.42 127.59 30.825 127.065 29.495C128.395 29.705 130.11 29.845 131.16 29.845C132.455 29.845 132.77 29.635 132.77 28.76V6.185C132.77 4.085 132.7 2.965 132.56 1.845ZM152.79 16.475L152.86 16.545C156.045 15.285 157.585 14.935 160.21 14.935C166.195 14.935 170.045 18.015 170.045 22.81C170.045 26.135 168.4 28.795 165.285 30.545C163.01 31.84 160.035 32.54 156.815 32.54C153.875 32.54 151.425 31.98 150.025 30.93C148.695 29.95 147.925 28.48 147.925 26.905C147.925 24 150.445 21.9 153.945 21.9C156.395 21.9 158.53 22.915 160 24.77C160.7 25.645 161.085 26.415 161.61 27.92C164.515 26.835 165.775 25.33 165.775 22.845C165.775 20.115 163.08 18.33 158.845 18.33C153.735 18.33 148.625 20.395 144.425 24.21L142.045 20.43C143.27 19.835 144.67 18.89 146.98 17.14C150.235 14.655 154.785 10.735 157.445 8.04C157.515 7.97 157.865 7.62 158.075 7.41L158.04 7.375C156.71 7.55 154.47 7.69 148.135 7.97C147.365 8.005 147.12 8.04 146.455 8.145L146.28 3.945C147.47 4.085 148.485 4.155 150.41 4.155C153.385 4.155 157.655 3.98 161.05 3.735C162.275 3.63 162.66 3.56 163.22 3.28L165.39 6.36C164.795 6.675 164.55 6.885 163.57 7.795C161.82 9.405 159.265 11.68 158.075 12.695C157.445 13.22 154.925 15.11 154.225 15.565C153.35 16.16 153.35 16.16 152.79 16.475ZM157.83 28.935C157.2 26.52 155.87 25.26 153.91 25.26C152.65 25.26 151.845 25.89 151.845 26.87C151.845 28.27 153.42 29.075 156.01 29.075C156.675 29.075 156.85 29.075 157.83 28.935ZM184.465 7.165V14.235C189.75 13.255 197.485 10.14 199.76 8.005L202.56 11.96C202.315 12.065 201.265 12.555 199.41 13.465C194.65 15.74 189.75 17.315 184.465 18.295V22.915C184.43 23.09 184.43 23.265 184.43 23.37C184.43 25.4 184.57 26.205 185.06 26.695C185.655 27.325 187.65 27.605 191.045 27.605C193.39 27.605 196.61 27.395 199.165 27.045C200.845 26.835 201.615 26.66 203.155 26.205L203.365 30.86C202.63 30.86 202.455 30.895 198.745 31.245C196.68 31.455 192.27 31.665 190.135 31.665C185.725 31.665 183.31 31.21 181.945 30.16C180.965 29.425 180.44 28.305 180.23 26.59C180.16 25.995 180.125 25.4 180.125 23.37L180.09 7.13C180.09 5.345 180.09 4.785 179.95 3.91H184.64C184.5 4.75 184.465 5.38 184.465 7.165ZM198.605 3.385L201.09 2.265C202.49 3.84 203.435 5.275 204.59 7.585L202.07 8.74C200.985 6.5 200.075 5.1 198.605 3.385ZM208.825 5.45L206.34 6.71C205.395 4.785 204.31 3.105 202.98 1.495L205.395 0.374998C206.935 2.125 207.88 3.49 208.825 5.45ZM215.055 7.06L217.33 3.49C220.62 4.75 224.12 6.43 226.64 8.005L224.4 11.855C221.565 9.93 217.61 7.865 215.055 7.06ZM212.29 15.565L214.635 11.96C217.89 13.255 221.32 15.005 223.945 16.72L221.775 20.675C219.465 18.89 215.51 16.755 212.29 15.565ZM233.08 4.015L235.53 2.79C237.07 4.435 238.015 5.765 239.205 7.935L236.755 9.23C235.6 7.095 234.62 5.695 233.08 4.015ZM214.285 32.435L213.06 27.64C215.79 27.605 219.465 26.8 223.175 25.365C229.58 23.125 234.83 17.385 237.35 9.93C238.715 11.4 239.38 11.96 240.99 13.045C236.65 23.65 229.265 29.39 216.735 31.84C215.23 32.155 214.95 32.225 214.285 32.435ZM243.37 5.66L240.955 7.025C239.905 5.1 238.75 3.455 237.385 1.95L239.73 0.724998C241.305 2.335 242.285 3.665 243.37 5.66ZM263.495 33.24H258.77C258.91 32.295 258.98 31.28 258.98 30.125V22.775C258.98 22.53 258.98 21.935 258.98 20.99C258.63 21.27 258.385 21.41 257.93 21.655C255.305 23.055 252.33 24.245 248.06 25.575C247.395 23.895 247.08 23.3 245.995 21.76C249.46 21.025 252.19 20.115 255.725 18.505C259.785 16.65 263.565 14.095 266.575 11.085C266.295 11.085 266.295 11.085 265.84 11.085C265.63 11.12 265.63 11.12 253.03 11.19C251 11.19 250.615 11.225 249.32 11.365V7.13C250.23 7.34 251.56 7.445 253.065 7.445H258.91V4.575C258.875 3.28 258.875 2.79 258.735 2.055H263.425C263.285 2.72 263.25 3.35 263.25 4.505V7.41H269.165C270.215 7.41 270.88 7.305 271.545 7.095L273.575 9.475C272.98 9.93 272.945 9.965 272.035 10.98C270.075 13.255 268.255 14.9 264.895 17.525C269.13 18.855 272.945 20.57 277.11 23.02L274.8 26.695C271.23 24.385 268.5 22.95 264.125 21.095C263.67 20.885 263.6 20.885 263.25 20.71C263.285 21.13 263.32 22.11 263.32 22.425V30.125C263.32 31.665 263.32 32.225 263.495 33.24ZM311.655 28.515L308.295 32.155C305.39 28.585 301.365 24.665 297.55 21.76C293.595 26.17 289.57 29.25 284.215 31.875C283.235 30.055 282.815 29.495 281.38 27.99C284.075 26.94 285.755 25.995 288.38 24.14C293.665 20.43 297.865 15.355 300.14 9.895L300.525 8.985C299.965 9.02 299.965 9.02 288.94 9.195C287.26 9.23 286.315 9.3 285.125 9.475L284.985 4.995C285.965 5.17 286.63 5.205 288.065 5.205C288.205 5.205 288.485 5.205 288.905 5.205L301.225 5.03C303.185 4.995 303.465 4.96 304.34 4.645L306.65 7.025C306.195 7.55 305.915 8.04 305.53 8.915C303.92 12.66 302.205 15.705 300.07 18.575C302.275 20.045 304.165 21.515 306.545 23.65C307.42 24.42 307.42 24.42 311.655 28.515ZM323.66 4.785L328.455 5.66C328.35 6.045 328.315 6.08 328.28 6.36L328.21 6.955L328.035 7.97L327.93 8.81C326.46 18.855 323.73 25.75 319.04 31.14C317.395 29.565 316.73 29.04 315.05 28.13C317.15 26.03 318.585 23.895 320.055 20.675C321.56 17.42 322.785 13.08 323.345 8.67C323.555 7.235 323.66 6.045 323.66 5.275C323.66 5.17 323.66 4.995 323.66 4.785ZM334.055 5.625L338.395 4.785C338.43 6.395 339.06 9.825 339.865 12.835C341.58 19.31 344.03 24.035 347.67 27.955C345.885 29.075 345.15 29.67 343.82 31.175C339.165 25.61 335.91 17.56 334.545 8.145C334.335 6.71 334.23 6.15 334.055 5.625ZM344.275 2.825C346.515 2.825 348.335 4.645 348.335 6.85C348.335 9.09 346.515 10.91 344.275 10.91C342.07 10.91 340.25 9.09 340.25 6.85C340.25 4.645 342.07 2.825 344.275 2.825ZM344.275 4.575C343.015 4.575 342 5.59 342 6.85C342 8.11 343.015 9.16 344.275 9.16C345.57 9.16 346.585 8.11 346.585 6.85C346.585 5.59 345.57 4.575 344.275 4.575ZM351.485 20.01V15.145C353.025 15.355 353.69 15.39 357.155 15.39H375.81C379.275 15.39 379.94 15.355 381.48 15.145V20.01C380.08 19.835 379.695 19.835 375.775 19.835H357.19C353.27 19.835 352.885 19.835 351.485 20.01ZM398.07 32.575H393.275C393.45 31.455 393.485 30.51 393.485 28.655V6.22C393.485 4.505 393.415 3.595 393.275 2.65H398.07C397.93 3.7 397.93 4.155 397.93 6.325V12.835C402.725 14.515 408.22 17.07 413.82 20.22L411.37 24.35C408.465 22.355 404.825 20.36 398.98 17.665C398.175 17.28 398.07 17.245 397.79 17.07C397.895 18.05 397.93 18.47 397.93 19.45V28.69C397.93 30.51 397.965 31.42 398.07 32.575ZM438.625 11.085H445.555C448.005 11.085 448.74 11.05 450.105 10.84V15.25C448.845 15.11 447.935 15.075 445.625 15.075H438.45C438.135 19.94 437.54 22.25 435.93 24.945C434.005 28.13 431.555 30.3 427.005 32.785C425.815 30.79 425.29 30.16 423.82 29.005C428.02 27.185 430.68 25.015 432.255 22.11C433.305 20.22 433.69 18.645 433.97 15.075H425.29C422.98 15.075 422.07 15.11 420.81 15.25V10.84C422.175 11.05 422.945 11.085 425.36 11.085H434.18C434.215 9.615 434.215 8.985 434.215 8.355V6.29C434.215 4.785 434.18 3.875 434.04 2.93H438.87C438.73 4.05 438.73 4.085 438.695 6.29L438.66 8.39C438.625 10.7 438.625 10.7 438.625 11.085ZM455.425 20.01V15.145C456.965 15.355 457.63 15.39 461.095 15.39H479.75C483.215 15.39 483.88 15.355 485.42 15.145V20.01C484.02 19.835 483.635 19.835 479.715 19.835H461.13C457.21 19.835 456.825 19.835 455.425 20.01Z" fill="#1D1D1D"/>
</svg>
