<svg width="100" height="100" viewBox="0 0 100 100" fill="none" xmlns="http://www.w3.org/2000/svg">
<path d="M35.417 2L38.746 19.7345H61.4188L64.5837 2.71338L56.5786 11.3948L50.3654 2.20945L44.1478 11.395L35.417 2ZM39.2253 22.2894L39.7176 24.9167H60.4558L60.9439 22.2893L39.2253 22.2894Z" fill="white"/>
<path d="M40.8345 37.4685V65.0621H37.3448V41.1815C36.0868 42.507 33.6386 44.1031 30 45.9698V41.851C32.5294 40.4984 34.8627 39.0376 36.9998 37.4685H40.8345Z" fill="white"/>
<path d="M67.86 51.3464C67.86 60.9907 64.7084 65.8128 58.4051 65.8128C52.2642 65.8128 49.1938 61.0312 49.1938 51.4682C49.1938 41.8781 52.298 37.083 58.5066 37.083C64.7422 37.083 67.86 41.8375 67.86 51.3464ZM63.9239 51.1436C63.9239 47.0992 63.5248 44.2655 62.7268 42.6423C61.9423 41.0056 60.5626 40.1873 58.5877 40.1873C56.5723 40.1873 55.1588 41.0935 54.3473 42.9061C53.5357 44.7186 53.1299 47.8634 53.1299 52.3406C53.1299 56.0333 53.5425 58.6844 54.3676 60.2941C55.2062 61.9037 56.5791 62.7085 58.4863 62.7085C60.4476 62.7085 61.8408 61.8225 62.6659 60.0506C63.5045 58.2651 63.9239 55.2961 63.9239 51.1436Z" fill="white"/>
<path d="M40.8345 37.4685V65.0621H37.3448V41.1815C36.0868 42.507 33.6386 44.1031 30 45.9698V41.851C32.5294 40.4984 34.8627 39.0376 36.9998 37.4685H40.8345Z" stroke="white" stroke-width="3"/>
<path d="M67.86 51.3464C67.86 60.9907 64.7084 65.8128 58.4051 65.8128C52.2642 65.8128 49.1938 61.0312 49.1938 51.4682C49.1938 41.8781 52.298 37.083 58.5066 37.083C64.7422 37.083 67.86 41.8375 67.86 51.3464ZM63.9239 51.1436C63.9239 47.0992 63.5248 44.2655 62.7268 42.6423C61.9423 41.0056 60.5626 40.1873 58.5877 40.1873C56.5723 40.1873 55.1588 41.0935 54.3473 42.9061C53.5357 44.7186 53.1299 47.8634 53.1299 52.3406C53.1299 56.0333 53.5425 58.6844 54.3676 60.2941C55.2062 61.9037 56.5791 62.7085 58.4863 62.7085C60.4476 62.7085 61.8408 61.8225 62.6659 60.0506C63.5045 58.2651 63.9239 55.2961 63.9239 51.1436Z" stroke="white" stroke-width="3"/>
<path d="M28.767 91.0698C28.482 91.025 27.968 90.3416 27.3702 90.5041C26.7892 89.7367 34.2086 86.0285 34.9126 86.0285H45.2483L36.3037 80.7128L31.2811 73.711C36.1026 73.515 47.6395 81.3065 46.9412 86.2806C46.6227 88.5268 41.2537 91.0754 39.3821 91.0754C36.2981 91.0754 31.5772 91.5123 28.767 91.0754V91.0698Z" fill="white"/>
<path d="M60.6123 91.0698C43.7399 88.8012 60.0089 73.7782 68.7133 73.711L63.4058 80.9873L54.7461 86.0285H64.5231C65.5232 86.0285 73.3002 89.6078 72.6242 90.5041C72.0543 90.336 71.423 91.0698 71.2274 91.0698C68.0373 91.0698 63.5845 91.4675 60.6123 91.0698Z" fill="white"/>
<path d="M82.1219 84.3593C82.865 85.3284 76.8534 86.4542 76.1886 86.5271C72.1437 86.9528 66.7635 86.7791 63.2884 84.4882C62.7633 84.1409 62.2772 84.5554 62.5677 83.2446C69.2888 81.1161 75.764 81.2505 82.1163 84.3649L82.1219 84.3593Z" fill="white"/>
<path d="M92.1783 75.397C90.1782 79.2452 74.2946 82.5613 72.6298 79.0268C78.3172 75.229 85.4629 73.7726 92.1783 75.397Z" fill="white"/>
<path d="M27.3702 78.7579C27.0797 79.7829 25.6215 80.1414 24.7221 80.2983C19.4089 81.2001 11.6208 79.3236 7.81608 75.397C14.8891 73.6158 21.1297 75.5091 27.3702 78.7579Z" fill="white"/>
<path d="M94.4131 63.6285C94.6589 64.6815 93.8153 64.956 93.3013 65.589C89.4128 70.339 84.0885 74.652 77.658 74.8257C81.1442 68.8658 87.3289 64.0766 94.4187 63.634L94.4131 63.6285Z" fill="white"/>
<path d="M37.4323 83.2334C37.7172 84.5554 37.2367 84.1352 36.7115 84.4825C32.0521 87.5745 22.694 87.3561 17.8837 84.6282C24.0516 80.8248 30.7112 81.441 37.4378 83.2334H37.4323Z" fill="white"/>
<path d="M22.342 74.8201C18.7161 74.6969 15.6042 73.3637 12.6599 71.3696C11.7548 70.7591 4.6483 64.4575 5.58132 63.6285C12.7549 64.1942 18.6603 68.9442 22.342 74.8201Z" fill="white"/>
<path d="M69.8363 79.3068C70.3224 72.5459 74.3058 65.5609 80.4458 62.5082C78.9262 68.7481 76.44 76.9654 69.8363 79.3068Z" fill="white"/>
<path d="M30.1637 79.3068C23.5041 76.9206 21.0515 68.8154 19.5542 62.5082C25.5713 65.7682 29.7447 72.4563 30.1637 79.3068Z" fill="white"/>
<path d="M14.5315 47.9445C18.8167 52.6721 19.6044 60.6653 17.0401 66.418C12.4253 61.5223 13.4253 54.0444 14.5315 47.9445Z" fill="white"/>
<path d="M85.4684 47.9445C86.2506 54.0444 87.3121 61.3935 82.9599 66.418C80.3844 60.9398 80.9877 52.1847 85.4684 47.9445Z" fill="white"/>
<path d="M97.7652 28.3395C97.106 33.3472 96.564 38.4389 93.0275 42.3487C92.3683 43.0768 91.6196 44.1579 90.5134 44.0179C90.5414 40.6738 91.3403 36.7192 92.8096 33.7225C93.2007 32.9215 96.8546 27.3481 97.7708 28.3395H97.7652Z" fill="white"/>
<path d="M9.49215 44.0179C3.74323 41.4972 2.92754 33.8345 2.23476 28.3395C3.11191 27.348 7.19035 33.7001 7.54232 34.4955C8.09542 35.7614 10.0061 43.4129 9.49215 44.0179Z" fill="white"/>
<path d="M80.4402 23.2926C74.7863 20.5199 71.1269 15.4394 69.8307 9.29467C70.2386 8.89697 72.9259 11.1095 73.4454 11.5464C76.982 14.504 80.3229 18.4418 80.4402 23.2926Z" fill="white"/>
<path d="M11.1626 19.9374C11.3805 20.1446 12.6041 24.1552 12.699 24.8442C13.2801 28.8212 12.6152 33.1511 10.8945 36.736C7.63171 32.5238 8.24627 25.4884 9.99497 20.716C10.2129 20.1222 10.2631 19.1028 11.1626 19.9374Z" fill="white"/>
<path d="M88.8318 55.2151C90.1615 49.5073 92.1783 43.4353 97.7652 40.657C99.1508 42.5223 92.927 55.7697 88.8318 55.2151Z" fill="white"/>
<path d="M12.8443 63.0627C7.19034 62.3793 1.961 57.6405 0 52.4256C5.65395 53.109 10.8833 57.8478 12.8443 63.0627Z" fill="white"/>
<path d="M14.526 33.3752C15.2187 27.1744 21.3587 23.7855 26.2473 21.0577C25.169 26.9111 20.0905 31.7452 14.526 33.3752Z" fill="white"/>
<path d="M88.8374 36.736C86.6361 30.8041 86.597 25.2699 88.8374 19.3716C89.8989 19.6125 89.9436 20.7776 90.2285 21.6122C91.6643 25.8357 92.3236 33.3864 88.8374 36.736Z" fill="white"/>
<path d="M84.3678 27.7738C82.1498 22.5364 79.4514 16.5653 82.4068 10.9751C85.0271 15.5178 88.2451 23.2086 84.3678 27.7738Z" fill="white"/>
<path d="M15.6322 27.7738C14.2801 27.953 14.7494 27.7738 14.4589 27.0008C12.8499 22.6709 14.6377 14.392 17.8669 10.9751C19.9676 16.9518 18.0345 22.2732 15.6322 27.7738Z" fill="white"/>
<path d="M17.3082 34.4955C17.9507 40.3714 15.5428 46.0456 11.4476 50.1682C9.44187 50.2187 11.4699 43.1945 11.8554 42.1862C12.8499 39.5591 15.0958 36.1871 17.3082 34.4955Z" fill="white"/>
<path d="M100 52.4256C97.6926 57.6349 93.0387 62.3737 87.1557 63.0627C88.9659 57.7862 94.4522 53.1426 100 52.4256Z" fill="white"/>
<path d="M82.6862 34.4955C85.1668 36.3943 87.625 40.5002 88.5301 43.4745C88.8429 44.494 90.2173 50.2018 88.5468 50.1682C84.2785 46.2753 82.1219 40.2705 82.6862 34.4955Z" fill="white"/>
<path d="M85.474 33.3752C79.9207 31.734 75.2779 27.2752 73.7471 21.6178C78.8983 23.1974 84.6751 27.7233 85.474 33.3752Z" fill="white"/>
<path d="M19.5597 23.2926C19.7776 16.991 24.9064 12.6779 29.605 9.28907C29.443 15.3218 24.6662 20.5815 19.5597 23.2926Z" fill="white"/>
<path d="M10.6039 55.2207C5.4584 52.6665 2.59791 46.2136 2.23476 40.657C7.20711 43.4185 10.4419 49.5801 10.6039 55.2207Z" fill="white"/>
<path d="M39.1083 97.7915C36.9741 95.6126 46.4439 90.8738 47.4775 89.395C46.4663 93.2768 43.265 97.3826 39.1083 97.7915Z" fill="white"/>
<path d="M60.8917 97.7915C56.8579 97.3042 53.1817 93.3776 52.5169 89.395C53.5505 90.6777 62.808 95.887 60.8917 97.7915Z" fill="white"/>
</svg>
