<svg width="100" height="100" viewBox="0 0 100 100" fill="none" xmlns="http://www.w3.org/2000/svg">
<path d="M42.4803 38.253C40.9929 39.3521 39.596 40.0722 38.6144 41.1713C36.2798 43.7854 33.4438 44.3174 30.1246 44.2211C23.9769 44.0422 17.8187 44.1507 11.665 44.2088C7.03348 44.2532 5.76499 45.4196 5.71666 50.0821C5.62908 58.5237 5.64418 66.9683 5.75593 75.4083C5.80727 79.2881 6.92928 80.3613 11.1304 80.9957C11.1304 78.7668 11.1304 76.5823 11.1304 74.3993C11.1304 68.8623 11.1244 63.3253 11.138 57.7884C11.1395 56.8237 11.0141 55.7812 11.3328 54.922C11.5608 54.306 12.4548 53.534 13.012 53.5645C13.5964 53.5966 14.359 54.4069 14.6293 55.055C14.9283 55.7689 14.7849 56.6846 14.7864 57.5132C14.7955 66.6488 14.7985 75.7858 14.7939 84.9214C14.7939 85.75 14.9253 86.6595 14.6354 87.3826C14.3726 88.0384 13.6508 88.8731 13.0694 88.9251C12.5137 88.9755 11.3615 88.1149 11.3645 87.6608C11.3826 85.2226 9.59614 84.9336 7.97277 84.2748C4.14917 82.7216 2.11203 79.7712 2.07277 75.6314C1.9882 66.7726 1.96404 57.9122 2.07277 49.0548C2.13619 43.9428 5.26514 40.8915 10.3633 40.8212C16.9262 40.731 23.4907 40.7356 30.0536 40.8273C32.3535 40.8594 34.1249 40.0523 36.0865 38.8507C41.5637 35.4921 44.1852 31.0436 42.9877 24.4763C42.6948 22.8711 42.8911 21.159 42.9711 19.5019C43.1825 15.1099 46.1514 12.0448 50.1653 12.0005C54.1323 11.9561 57.3005 14.983 57.5346 19.3429C57.7188 22.7947 57.7113 26.2679 57.5558 29.7213C57.4455 32.1672 58.4512 33.6424 60.1471 35.3591C64.5355 39.8 69.5022 41.4969 75.6605 40.8885C80.2663 40.4329 84.9507 40.7356 89.6003 40.8029C95.4792 40.89 98.3635 43.764 98.436 49.8024C98.5356 58.1063 98.4843 66.4133 98.4495 74.7188C98.4299 79.4823 96.5136 83.064 91.8126 84.5499C90.23 85.0498 89.1095 85.5711 88.9374 87.4743C88.8875 88.0262 87.9331 88.494 87.394 89C86.8579 88.3228 86.0893 87.7189 85.8477 86.9469C85.5713 86.0634 85.7571 85.0299 85.7556 84.0607C85.7525 75.3395 85.7525 66.6182 85.751 57.8984C85.751 57.2059 85.7254 56.5134 85.7616 55.8224C85.822 54.656 86.044 53.4713 87.5103 53.5187C89.0295 53.5661 89.0536 54.8701 89.0582 55.9692C89.0899 62.613 89.0778 69.2583 89.0884 75.902C89.0899 77.1479 89.0808 78.3953 89.1563 79.6382C89.2515 81.2112 90.159 81.4497 91.423 80.8902C94.0294 79.736 94.8615 77.6065 94.8374 74.8533C94.7755 68.0704 94.8223 61.2876 94.8238 54.5047C94.8238 52.843 94.8676 51.1797 94.7966 49.5211C94.6365 45.7406 93.2653 44.2807 89.4855 44.2257C82.6493 44.1263 75.81 44.0972 68.9752 44.2058C66.6572 44.2425 64.7242 43.7411 62.9695 42.1802C60.7119 40.173 58.3803 38.2423 56.0003 36.3864C54.5672 35.269 54.0115 34.0399 54.1338 32.1366C54.3543 28.6894 54.2471 25.2192 54.1882 21.7582C54.1671 20.5261 54.0176 19.2618 53.6899 18.0802C53.2248 16.4032 51.8913 15.6969 50.2483 15.6602C48.563 15.622 47.3172 16.4475 46.8068 18.0649C46.4806 19.0967 46.3447 20.2295 46.3341 21.318C46.2903 25.8857 46.3824 30.455 46.31 35.0213C46.2647 37.8922 47.3278 40.0691 49.5944 41.7751C54.0916 45.1597 58.4799 48.6971 63.0314 52.0037C65.0036 53.4377 65.8447 55.0504 65.8115 57.5376C65.6892 66.6717 65.7587 75.8103 65.7526 84.9459C65.7526 85.6384 65.9278 86.4241 65.6651 86.9974C65.3132 87.7663 64.7001 88.8196 64.0417 88.9511C62.7384 89.2125 62.154 88.1118 62.0725 86.8797C62.0091 85.9151 62.0514 84.9428 62.0514 83.9736C62.0514 75.6681 62 67.3611 62.0876 59.0572C62.1118 56.8039 61.627 55.1575 59.602 53.855C57.0725 52.2269 54.7394 50.2732 52.4033 48.3608C50.9324 47.1562 49.759 46.8229 48.1251 48.2752C45.7678 50.368 43.2278 52.2819 40.6078 54.0293C38.628 55.3501 38.0889 57.0408 38.1085 59.2895C38.1795 67.4559 38.1372 75.6238 38.1372 83.7917C38.1372 84.7609 38.1569 85.7301 38.1252 86.6978C38.0874 87.8565 37.9304 89.0596 36.4127 88.9725C34.9343 88.8869 34.8845 87.6517 34.8437 86.5158C34.8241 85.9625 34.821 85.4091 34.821 84.8557C34.8225 75.7186 34.9056 66.5815 34.7757 57.4475C34.7395 54.9373 35.6033 53.2802 37.5694 51.9013C40.04 50.1677 42.4139 48.2905 44.7938 46.4301C46.9095 44.776 46.8536 44.7729 45.351 42.6817C44.3966 41.3547 43.5646 39.9376 42.4788 38.253H42.4803Z" fill="white"/>
<path d="M75.6665 16.0035C81.1739 15.9836 85.5245 20.3756 85.4928 25.9233C85.4611 31.3899 80.9126 35.9103 75.5472 35.8079C70.3131 35.7085 66.038 31.3334 65.964 25.9997C65.8855 20.345 70.0806 16.0233 75.6665 16.0035ZM75.7224 19.4155C72.5647 19.4201 69.3482 22.6732 69.3829 25.8315C69.4207 29.3323 72.2053 32.084 75.7178 32.0901C79.2817 32.0962 82.0392 29.3506 81.9878 25.8453C81.938 22.4088 79.0159 19.411 75.7224 19.4155Z" fill="white"/>
<path d="M24.8633 15.9997C30.2906 16.0257 34.6956 20.5874 34.5824 26.0632C34.4737 31.3113 30.0641 35.7292 24.8648 35.7996C19.4556 35.8729 15.0083 31.3816 15.0234 25.8614C15.0385 20.1991 19.2563 15.9722 24.8633 15.9997ZM30.9053 26.0067C30.9793 22.4279 28.3199 19.5051 24.9222 19.4332C21.6271 19.3629 18.548 22.3057 18.4031 25.6612C18.2596 29.0243 21.1197 32.0022 24.5779 32.0924C28.249 32.1872 30.8267 29.7077 30.9037 26.0067H30.9053Z" fill="white"/>
</svg>
